<svg width="11px" height="9px" viewBox="0 0 11 9" version="1.1" xmlns="http://www.w3.org/2000/svg" xmlns:xlink="http://www.w3.org/1999/xlink">
    <title>Icon New/Arrow/Small/Right</title>
    <g id="ðŸ–¥ï¸-Desktop" stroke="none" stroke-width="1" fill="none" fill-rule="evenodd">
        <g id="Blog/Vlog/Podcast" transform="translate(-844.000000, -5226.000000)" fill="#8D2D78" fill-rule="nonzero">
            <g id="Group-4" transform="translate(586.000000, 5222.000000)">
                <g id="Icon-New/Arrow/Small/Right" transform="translate(258.000000, 4.000000)">
                    <path d="M6.49632405,0.155081084 L10.8173863,4.09261562 C10.9340059,4.198812 11,4.34597716 11,4.49996305 C11,4.65394895 10.9340059,4.80090311 10.8173863,4.90731049 L6.49632405,8.84484503 C6.2607772,9.05871409 5.88793816,9.05065165 5.66304642,8.82580189 C5.43825283,8.60314369 5.44669877,8.24571868 5.6829945,8.03032611 L8.94097679,5.06311244 L0.589481142,5.06311244 C0.264173898,5.06311244 0,4.8109225 0,4.5003729 C0,4.1898233 0.264173898,3.93810221 0.589481142,3.93810221 L8.93944307,3.93810221 L5.68146041,0.970888906 C5.4455202,0.755086489 5.43815468,0.397661479 5.66157339,0.174300174 C5.88744702,-0.0507019424 6.2385334,-0.0586706765 6.49632405,0.155081084 Z" id="Path"></path>
                </g>
            </g>
        </g>
    </g>
</svg>