<?xml version="1.0" encoding="UTF-8"?>
<svg width="18px" height="19px" viewBox="0 0 18 19" version="1.1" xmlns="http://www.w3.org/2000/svg" xmlns:xlink="http://www.w3.org/1999/xlink">
    <!-- Generator: sketchtool 41.2 (35397) - http://www.bohemiancoding.com/sketch -->
    <title>E0ADD2D7-4D9C-4375-922D-092601B2187F</title>
    <desc>Created with sketchtool.</desc>
    <defs></defs>
    <g id="Page-1" stroke="none" stroke-width="1" fill="none" fill-rule="evenodd" opacity="0.699999988">
        <g id="home_updated" transform="translate(-130.000000, -2789.000000)">
            <g id="Group-8" transform="translate(0.000000, 2584.000000)">
                <g id="Group-13" transform="translate(48.000000, 29.500000)">
                    <g id="Group-22" transform="translate(73.000000, 167.000000)">
                        <g id="ic_map" transform="translate(6.000000, 6.000000)" opacity="0.839999974">
                            <g id="ic_map_black_24px">
                                <g>
                                    <g id="Group">
                                        <path d="M20.5,3 L20.34,3.03 L15,5.1 L9,3 L3.36,4.9 C3.15,4.97 3,5.15 3,5.38 L3,20.5 C3,20.78 3.22,21 3.5,21 L3.66,20.97 L9,18.9 L15,21 L20.64,19.1 C20.85,19.03 21,18.85 21,18.62 L21,3.5 C21,3.22 20.78,3 20.5,3 Z M15,19 L9,16.89 L9,5 L15,7.11 L15,19 Z" id="Shape" fill="#000000"></path>
                                        <polygon id="Shape" points="0 0 24 0 24 24 0 24"></polygon>
                                    </g>
                                </g>
                            </g>
                        </g>
                    </g>
                </g>
            </g>
        </g>
    </g>
</svg>