<?xml version="1.0" encoding="UTF-8" standalone="no"?>
<!-- Created with Inkscape (http://www.inkscape.org/) -->

<svg
   xmlns:dc="http://purl.org/dc/elements/1.1/"
   xmlns:cc="http://creativecommons.org/ns#"
   xmlns:rdf="http://www.w3.org/1999/02/22-rdf-syntax-ns#"
   xmlns:svg="http://www.w3.org/2000/svg"
   xmlns="http://www.w3.org/2000/svg"
   xmlns:xlink="http://www.w3.org/1999/xlink"
   xmlns:sodipodi="http://sodipodi.sourceforge.net/DTD/sodipodi-0.dtd"
   xmlns:inkscape="http://www.inkscape.org/namespaces/inkscape"
   width="50.799999mm"
   height="55.284012mm"
   viewBox="0 0 50.799999 55.284012"
   version="1.1"
   id="svg8"
   inkscape:version="0.92.2 (5c3e80d, 2017-08-06)"
   sodipodi:docname="icon-price.svg">
  <defs
     id="defs2">
    <filter
       id="filter-1"
       filterUnits="objectBoundingBox"
       height="2"
       width="2"
       y="-0.5"
       x="-0.5">
      <feOffset
         id="feOffset819"
         result="shadowOffsetOuter1"
         in="SourceAlpha"
         dy="0"
         dx="0" />
      <feGaussianBlur
         id="feGaussianBlur821"
         result="shadowBlurOuter1"
         in="shadowOffsetOuter1"
         stdDeviation="3.5" />
      <feColorMatrix
         id="feColorMatrix823"
         result="shadowMatrixOuter1"
         in="shadowBlurOuter1"
         type="matrix"
         values="0 0 0 0 0   0 0 0 0 0   0 0 0 0 0  0 0 0 0.261973505 0" />
      <feMerge
         id="feMerge829">
        <feMergeNode
           id="feMergeNode825"
           in="shadowMatrixOuter1" />
        <feMergeNode
           id="feMergeNode827"
           in="SourceGraphic" />
      </feMerge>
    </filter>
    <circle
       r="48"
       cy="48"
       cx="48"
       id="path-2" />
  </defs>
  <sodipodi:namedview
     id="base"
     pagecolor="#ffffff"
     bordercolor="#666666"
     borderopacity="1.0"
     inkscape:pageopacity="0.0"
     inkscape:pageshadow="2"
     inkscape:zoom="0.49497475"
     inkscape:cx="93.999445"
     inkscape:cy="264.39979"
     inkscape:document-units="mm"
     inkscape:current-layer="layer1"
     showgrid="false"
     inkscape:measure-start="0,0"
     inkscape:measure-end="0,0"
     inkscape:window-width="1366"
     inkscape:window-height="705"
     inkscape:window-x="-8"
     inkscape:window-y="-8"
     inkscape:window-maximized="1" />
  <metadata
     id="metadata5">
    <rdf:RDF>
      <cc:Work
         rdf:about="">
        <dc:format>image/svg+xml</dc:format>
        <dc:type
           rdf:resource="http://purl.org/dc/dcmitype/StillImage" />
        <dc:title></dc:title>
      </cc:Work>
    </rdf:RDF>
  </metadata>
  <g
     inkscape:label="Layer 1"
     inkscape:groupmode="layer"
     id="layer1"
     transform="translate(-26.182913,-125.88267)">
    <g
       id="g1085">
      <circle
         transform="matrix(0.26458333,0,0,0.26458333,38.882913,138.58267)"
         style="fill:#ffffff;fill-rule:evenodd;stroke:none;stroke-width:1;filter:url(#filter-1)"
         id="Oval-17"
         cx="48"
         cy="48"
         r="48" />
      <g
         transform="matrix(0.26458333,0,0,0.26458333,38.882913,138.58267)"
         style="fill:none;fill-rule:evenodd;stroke:none;stroke-width:1;filter:url(#filter-1)"
         id="Path-30">
        <mask
           id="mask-3"
           fill="white">
          <use
             height="100%"
             width="100%"
             y="0"
             x="0"
             xlink:href="#path-2"
             id="use836" />
        </mask>
        <g
           id="Mask" />
        <polygon
           style="opacity:0.5;fill:#d8d8d8"
           mask="url(#mask-3)"
           points="58.424805,45.078125 63.196289,13.417969 97.111047,47.332727 97.510462,111.77096 59.763286,111.77096 28.939743,80.947413 53.536133,45.583008 "
           id="polygon840" />
      </g>
      <ellipse
         transform="matrix(0.26458333,0,0,0.26458333,45.76208,141.75767)"
         ry="16.314758"
         rx="16.120535"
         cy="17.04217"
         cx="29.160715"
         id="Oval-3-Copy"
         style="fill:#ffffff;fill-rule:evenodd;stroke:#b6b6b6;stroke-width:1.5;filter:url(#filter-1)" />
      <ellipse
         transform="matrix(0.26458333,0,0,0.26458333,45.76208,141.75767)"
         ry="12.054217"
         rx="11.910714"
         cy="17.04217"
         cx="29.160715"
         id="Oval-3"
         style="fill:#ffffff;fill-rule:evenodd;stroke:#b6b6b6;stroke-width:1.5;filter:url(#filter-1)" />
      <ellipse
         transform="matrix(0.26458333,0,0,0.26458333,45.76208,141.75767)"
         ry="7.4819279"
         rx="7.3928571"
         cy="17.04217"
         cx="29.160715"
         id="ellipse845"
         style="fill:#ffffff;fill-rule:evenodd;stroke:#b6b6b6;stroke-width:1.5;filter:url(#filter-1)" />
      <rect
         transform="matrix(0.26458333,0,0,0.26458333,45.76208,141.75767)"
         rx="5"
         height="52.373493"
         width="30.392857"
         y="16.626507"
         x="0"
         id="Rectangle-36"
         style="fill:#f7a404;fill-rule:evenodd;stroke:none;stroke-width:1;filter:url(#filter-1)" />
      <rect
         transform="matrix(0.26458333,0,0,0.26458333,45.76208,141.75767)"
         rx="1"
         height="39.903614"
         width="26.965517"
         y="19.951807"
         x="1.6428572"
         id="rect848"
         style="fill:#ffffff;fill-rule:evenodd;stroke:none;stroke-width:1;filter:url(#filter-1)" />
      <rect
         transform="matrix(0.26458333,0,0,0.26458333,45.76208,141.75767)"
         rx="2"
         height="36.578312"
         width="24.718391"
         y="21.614458"
         x="2.4642856"
         id="rect850"
         style="fill:#338b37;fill-rule:evenodd;stroke:none;stroke-width:1;filter:url(#filter-1)" />
      <g
         style="fill:#ffffff"
         transform="matrix(0.01491759,0,0,0.01491759,46.717759,149.82722)"
         id="g959">
        <g
           style="fill:#ffffff"
           id="g903">
          <path
             style="fill:#ffffff"
             inkscape:connector-curvature="0"
             d="m 326.62,91.076 c -1.711,-1.713 -3.901,-2.568 -6.563,-2.568 h -48.82 C 267.999,72.715 261.908,59.006 252.963,47.396 h 66.52 c 2.669,0 4.853,-0.856 6.57,-2.565 1.704,-1.712 2.56,-3.903 2.56,-6.567 V 9.136 c 0,-2.666 -0.855,-4.853 -2.56,-6.567 C 324.334,0.859 322.15,0 319.481,0 H 81.941 c -2.666,0 -4.853,0.859 -6.567,2.568 -1.709,1.714 -2.568,3.901 -2.568,6.567 v 37.972 c 0,2.474 0.904,4.615 2.712,6.423 1.808,1.808 3.949,2.712 6.423,2.712 h 41.399 c 40.159,0 65.665,10.751 76.513,32.261 H 81.941 c -2.666,0 -4.856,0.855 -6.567,2.568 -1.709,1.715 -2.568,3.901 -2.568,6.567 v 29.124 c 0,2.664 0.855,4.854 2.568,6.563 1.714,1.715 3.905,2.568 6.567,2.568 h 121.915 c -4.188,15.612 -13.944,27.506 -29.268,35.691 -15.325,8.186 -35.544,12.279 -60.67,12.279 H 81.941 c -2.474,0 -4.615,0.905 -6.423,2.712 -1.809,1.809 -2.712,3.951 -2.712,6.423 v 36.263 c 0,2.478 0.855,4.571 2.568,6.282 36.543,38.828 83.939,93.165 142.182,163.025 1.715,2.286 4.093,3.426 7.139,3.426 h 55.672 c 4.001,0 6.763,-1.708 8.281,-5.141 1.903,-3.426 1.53,-6.662 -1.143,-9.708 -55.572,-68.143 -99.258,-119.153 -131.045,-153.032 32.358,-3.806 58.625,-14.277 78.802,-31.404 20.174,-17.129 32.449,-39.403 36.83,-66.811 h 47.965 c 2.662,0 4.853,-0.854 6.563,-2.568 1.715,-1.709 2.573,-3.899 2.573,-6.563 V 97.646 c 0,-2.669 -0.858,-4.856 -2.573,-6.57 z"
             id="path901" />
        </g>
        <g
           style="fill:#ffffff"
           id="g905" />
        <g
           style="fill:#ffffff"
           id="g907" />
        <g
           style="fill:#ffffff"
           id="g909" />
        <g
           style="fill:#ffffff"
           id="g911" />
        <g
           style="fill:#ffffff"
           id="g913" />
        <g
           style="fill:#ffffff"
           id="g915" />
        <g
           style="fill:#ffffff"
           id="g917" />
        <g
           style="fill:#ffffff"
           id="g919" />
        <g
           style="fill:#ffffff"
           id="g921" />
        <g
           style="fill:#ffffff"
           id="g923" />
        <g
           style="fill:#ffffff"
           id="g925" />
        <g
           style="fill:#ffffff"
           id="g927" />
        <g
           style="fill:#ffffff"
           id="g929" />
        <g
           style="fill:#ffffff"
           id="g931" />
        <g
           style="fill:#ffffff"
           id="g933" />
      </g>
    </g>
  </g>
</svg>
