<?xml version="1.0" encoding="UTF-8"?>
<svg width="20px" height="20px" viewBox="0 0 20 20" version="1.1" xmlns="http://www.w3.org/2000/svg" xmlns:xlink="http://www.w3.org/1999/xlink">
    <!-- Generator: sketchtool 41.2 (35397) - http://www.bohemiancoding.com/sketch -->
    <title>DFBC3943-6066-4A12-A9BD-2F22AC90B199</title>
    <desc>Created with sketchtool.</desc>
    <defs></defs>
    <g id="Page-1" stroke="none" stroke-width="1" fill="none" fill-rule="evenodd">
        <g id="About-2-2" transform="translate(-588.000000, -1427.000000)">
            <g id="Group-5-Copy" transform="translate(426.000000, 1351.000000)">
                <g id="logo_linkdin" transform="translate(158.801843, 73.000000)">
                    <polygon id="Bounds" points="0 0 26.7225806 0 26.7225806 26.6 0 26.6"></polygon>
                    <path d="M4.29896508,9.89245742 L8.01928808,9.89245742 L8.01928808,22.7987835 L4.29896508,22.7987835 L4.29896508,9.89245742 Z M6.06429482,8.27810219 L6.03736035,8.27810219 C4.6906371,8.27810219 3.81751152,7.29148418 3.81751152,6.04209246 C3.81751152,4.76715328 4.71644929,3.8 6.09010701,3.8 C7.46264246,3.8 8.30658904,4.76472019 8.3335235,6.03844282 C8.3335235,7.28783455 7.46264246,8.27810219 6.06429482,8.27810219 L6.06429482,8.27810219 Z M22.9050691,22.8 L18.6864585,22.8 L18.6864585,16.1199513 C18.6864585,14.3717762 18.0265641,13.179562 16.5754698,13.179562 C15.4655454,13.179562 14.8482973,13.9836983 14.5609963,14.7610706 C14.4532584,15.0384428 14.4700925,15.4265207 14.4700925,15.8158151 L14.4700925,22.8 L10.2907613,22.8 C10.2907613,22.8 10.3446302,10.9678832 10.2907613,9.89245742 L14.4700925,9.89245742 L14.4700925,11.9180049 C14.7169917,11.0323601 16.0524923,9.76836983 18.1836818,9.76836983 C20.8277485,9.76836983 22.9050691,11.6260341 22.9050691,15.6223844 L22.9050691,22.8 L22.9050691,22.8 Z" id="Shape" fill="#FFFFFF"></path>
                </g>
            </g>
        </g>
    </g>
</svg>