<?xml version="1.0" encoding="UTF-8"?>
<svg width="22px" height="23px" viewBox="0 0 22 23" version="1.1" xmlns="http://www.w3.org/2000/svg" xmlns:xlink="http://www.w3.org/1999/xlink">
    <!-- Generator: sketchtool 41.2 (35397) - http://www.bohemiancoding.com/sketch -->
    <title>BF1D2652-36C3-41C7-B0A4-5D65C010794A</title>
    <desc>Created with sketchtool.</desc>
    <defs></defs>
    <g id="Page-1" stroke="none" stroke-width="1" fill="none" fill-rule="evenodd">
        <g id="About-2-2" transform="translate(-535.000000, -1426.000000)">
            <g id="Group-5-Copy" transform="translate(426.000000, 1351.000000)">
                <g id="logo_google" transform="translate(106.562212, 73.000000)">
                    <polygon id="Bounds" points="0 0 26.7225806 0 26.7225806 26.6 0 26.6"></polygon>
                    <path d="M9.75857351,23.6195761 C7.16717933,23.6195761 5.296969,21.9751734 5.296969,20.0006056 C5.296969,18.0645784 7.61807936,16.452293 10.2081926,16.4805562 C10.8115275,16.4882643 11.3751526,16.5846161 11.886258,16.750341 C13.2914777,17.7318438 14.3008789,18.285545 14.5852533,19.403225 C14.6390539,19.630615 14.6685161,19.8618591 14.6685161,20.1008114 C14.6685161,22.0766639 13.3990788,23.6195761 9.75857351,23.6195761 M10.4387664,12.036815 C8.70049561,11.9841428 7.04804949,10.0866563 6.74830346,7.79733949 C6.44855742,5.5080227 7.61423646,3.75570614 9.35250729,3.80709372 C11.0894972,3.85976599 12.7432242,5.69558737 13.0429703,7.98618885 C13.3427163,10.2755056 12.1770373,12.0894873 10.4387664,12.036815 M14.0421237,15.4271108 C13.4323839,14.9941704 12.2679859,13.9420096 12.2679859,13.3227893 C12.2679859,12.595655 12.4742214,12.239796 13.5617615,11.3867621 C14.6774829,10.5118885 15.4678389,9.28244062 15.4678389,7.85386583 C15.4678389,6.15036747 14.7120689,4.49183325 13.2927586,3.9445555 L15.4319718,3.9445555 L16.9422307,2.85 L10.1941019,2.85 C7.17102223,2.85 4.32343486,5.14830962 4.32343486,7.81018638 C4.32343486,10.5311589 6.38579008,12.7266933 9.46267037,12.7266933 C9.67787265,12.7266933 9.88410817,12.7228393 10.0877818,12.707423 C9.88923204,13.0902605 9.74448288,13.5232008 9.74448288,13.9702728 C9.74448288,14.726955 10.1505491,15.3410366 10.6642165,15.8407808 C10.2760838,15.8407808 9.90076073,15.852343 9.49469451,15.852343 C5.74786903,15.852343 2.86313364,18.244435 2.86313364,20.7277399 C2.86313364,23.1712194 6.02583864,24.7 9.77138317,24.7 C14.0421237,24.7 16.402944,22.2693674 16.402944,19.8246031 C16.402944,17.8654516 15.8252284,16.6912453 14.0421237,15.4271108 M23.859447,12.2359419 L21.2334667,12.2359419 L21.2334667,9.60232832 L19.1185919,9.60232832 L19.1185919,12.2359419 L16.4926117,12.2359419 L16.4926117,14.3569644 L19.1185919,14.3569644 L19.1185919,16.990578 L21.2334667,16.990578 L21.2334667,14.3569644 L23.859447,14.3569644 L23.859447,12.2359419" id="Shape" fill="#FFFFFF"></path>
                </g>
            </g>
        </g>
    </g>
</svg>