<?xml version="1.0" encoding="UTF-8"?>
<svg width="12px" height="23px" viewBox="0 0 12 23" version="1.1" xmlns="http://www.w3.org/2000/svg" xmlns:xlink="http://www.w3.org/1999/xlink">
    <!-- Generator: sketchtool 41.2 (35397) - http://www.bohemiancoding.com/sketch -->
    <title>22CC69D8-6607-4D59-9B00-65715EBE90AF</title>
    <desc>Created with sketchtool.</desc>
    <defs></defs>
    <g id="Page-1" stroke="none" stroke-width="1" fill="none" fill-rule="evenodd">
        <g id="About-2-2" transform="translate(-436.000000, -1426.000000)">
            <g id="Group-5-Copy" transform="translate(426.000000, 1351.000000)">
                <g id="logo_facebook" transform="translate(2.082949, 73.000000)">
                    <polygon id="Bounds" points="0 0 26.7225806 0 26.7225806 26.6 0 26.6"></polygon>
                    <path d="M15.5703942,24.7 L10.9154505,24.7 L10.9154505,13.7736209 L8.58940092,13.7736209 L8.58940092,10.0087573 L10.9154505,10.0087573 L10.9154505,7.74845998 C10.9154505,4.677269 12.2281646,2.85 15.960084,2.85 L19.0662242,2.85 L19.0662242,6.61624274 L17.1248866,6.61624274 C15.6720833,6.61624274 15.5760831,7.14235831 15.5760831,8.12425682 L15.5696831,10.0087573 L19.0875576,10.0087573 L18.6758234,13.7736209 L15.5696831,13.7736209 L15.5696831,24.7 L15.5703942,24.7 Z" id="Shape" fill="#FFFFFF"></path>
                </g>
            </g>
        </g>
    </g>
</svg>