<svg width="273" height="80" viewBox="0 0 273 80" fill="none" xmlns="http://www.w3.org/2000/svg">
<path d="M261.829 78.9938H10.5663C9.35343 78.9989 8.15137 78.7644 7.02932 78.3037C5.90726 77.8431 4.88728 77.1654 4.02781 76.3095C3.16835 75.4537 2.4864 74.4364 2.02106 73.3163C1.55573 72.1962 1.31615 70.9953 1.31616 69.7823V10.2176C1.31615 9.0047 1.55573 7.80378 2.02106 6.68367C2.4864 5.56356 3.16835 4.5463 4.02781 3.69043C4.88728 2.83457 5.90726 2.15708 7.02932 1.69644C8.15137 1.23581 9.35343 1.00109 10.5663 1.00618H261.829C264.276 1.00616 266.623 1.97564 268.356 3.70201C270.09 5.42838 271.069 7.77106 271.079 10.2176V69.8211C271.074 71.0307 270.831 72.2276 270.363 73.3432C269.896 74.4589 269.213 75.4715 268.354 76.3232C267.495 77.175 266.477 77.8493 265.357 78.3075C264.238 78.7657 263.039 78.9989 261.829 78.9938Z" fill="#010101"/>
<path d="M261.829 80H10.2565C7.54303 80 4.94015 78.9247 3.0178 77.0096C1.09546 75.0945 0.0102395 72.4957 0 69.7822V10.2175C0.0102395 7.50408 1.09546 4.90525 3.0178 2.99016C4.94015 1.07508 7.54303 -1.93197e-05 10.2565 2.60044e-10H261.829C264.539 2.60044e-10 267.138 1.07633 269.054 2.99253C270.97 4.90872 272.047 7.50763 272.047 10.2175V69.821C272.037 72.5242 270.955 75.1131 269.04 77.0209C267.125 78.9288 264.532 80 261.829 80ZM10.2565 2.01242C8.16187 2.13117 6.19235 3.04775 4.75266 4.57383C3.31296 6.09991 2.51246 8.11953 2.51582 10.2175V69.821C2.51582 71.9971 3.3802 74.0842 4.91896 75.6229C6.45772 77.1617 8.5448 78.0261 10.7209 78.0261H262.293C264.466 78.0159 266.548 77.1482 268.084 75.6116C269.621 74.0751 270.488 71.994 270.499 69.821V10.2175C270.488 8.04453 269.621 5.96346 268.084 4.4269C266.548 2.89034 264.466 2.0226 262.293 2.01242H10.2565Z" fill="#A8AAAD"/>
<path d="M90.8369 22.7577L89.7146 26.628H87.2375L91.4174 13.4688H94.4751L98.7711 26.628H96.178L95.017 22.7577H90.8369ZM94.7073 20.9385L93.6622 17.6875C93.43 16.9135 93.1978 15.9846 93.0043 15.2492C92.8108 15.9846 92.6172 16.9135 92.3849 17.6875L91.3788 20.9385H94.7073Z" fill="white"/>
<path d="M102.37 16.9521L103.88 21.7901C104.151 22.6416 104.344 23.3769 104.538 24.1509C104.538 23.3769 104.925 22.6416 105.157 21.7901L106.705 16.9521H109.221L105.583 26.473H103.144L99.6226 16.9521H102.37Z" fill="white"/>
<path d="M118.859 24.1896C118.791 24.9493 118.791 25.7133 118.859 26.473H116.691V25.4282C116.347 25.8403 115.914 26.1692 115.425 26.3903C114.936 26.6115 114.403 26.7191 113.866 26.7052C113.482 26.7263 113.098 26.6689 112.737 26.5363C112.376 26.4038 112.046 26.1991 111.767 25.9347C111.488 25.6702 111.266 25.3515 111.115 24.9983C110.963 24.645 110.885 24.2644 110.886 23.88C110.886 21.4803 113.015 20.2419 116.537 20.2806C116.537 19.6613 116.266 18.6163 114.563 18.6163C113.678 18.625 112.81 18.8652 112.047 19.313L111.582 17.7647C112.624 17.1882 113.798 16.8947 114.988 16.9134C115.508 16.8658 116.033 16.9332 116.524 17.1109C117.015 17.2885 117.461 17.5721 117.831 17.9414C118.2 18.3108 118.483 18.7568 118.661 19.248C118.839 19.7392 118.906 20.2636 118.859 20.7837V24.1896ZM116.498 21.8286C114.795 21.8286 113.208 22.177 113.208 23.609C113.19 23.7914 113.213 23.9755 113.274 24.1481C113.336 24.3206 113.435 24.4772 113.565 24.6068C113.694 24.7364 113.851 24.8357 114.024 24.8974C114.196 24.9591 114.38 24.9816 114.563 24.9635C114.977 24.9709 115.383 24.848 115.723 24.6118C116.064 24.3756 116.321 24.0384 116.459 23.6477C116.478 23.4806 116.478 23.3117 116.459 23.1446L116.498 21.8286Z" fill="white"/>
<path d="M123.425 15.6362C123.253 15.6471 123.08 15.6218 122.918 15.562C122.756 15.5022 122.608 15.4092 122.484 15.2889C122.36 15.1686 122.263 15.0236 122.198 14.8635C122.134 14.7033 122.103 14.5315 122.109 14.3589C122.103 14.1812 122.135 14.0045 122.201 13.8397C122.268 13.6748 122.368 13.5256 122.496 13.4017C122.623 13.2778 122.775 13.1819 122.942 13.1201C123.108 13.0584 123.286 13.0322 123.464 13.0431C123.64 13.0379 123.815 13.0681 123.979 13.1319C124.143 13.1957 124.293 13.2917 124.419 13.4145C124.545 13.5372 124.646 13.6841 124.714 13.8463C124.783 14.0085 124.818 14.1828 124.818 14.3589C124.818 14.5333 124.783 14.7061 124.714 14.8663C124.645 15.0265 124.544 15.1709 124.417 15.2906C124.29 15.4102 124.14 15.5026 123.976 15.562C123.812 15.6214 123.638 15.6467 123.464 15.6362H123.425ZM122.225 26.5118V17.0294H124.625V26.5118H122.225Z" fill="white"/>
<path d="M128.07 12.6171H130.47V26.473H128.07V12.6171Z" fill="white"/>
<path d="M141.345 24.1896C141.3 24.9501 141.3 25.7125 141.345 26.473H139.217L139.023 25.4282C138.679 25.8403 138.246 26.1692 137.757 26.3903C137.268 26.6115 136.735 26.7191 136.198 26.7052C135.814 26.7263 135.43 26.6689 135.069 26.5363C134.708 26.4038 134.378 26.1991 134.099 25.9347C133.82 25.6702 133.598 25.3515 133.447 24.9983C133.295 24.645 133.217 24.2644 133.218 23.88C133.218 21.4803 135.346 20.2419 138.83 20.2806C138.83 19.6613 138.597 18.6163 136.933 18.6163C136.035 18.62 135.154 18.8603 134.379 19.313L133.914 17.7647C134.969 17.185 136.156 16.8916 137.359 16.9134C137.879 16.8658 138.403 16.9332 138.895 17.1109C139.386 17.2885 139.832 17.5721 140.201 17.9414C140.57 18.3108 140.854 18.7568 141.032 19.248C141.209 19.7392 141.277 20.2636 141.229 20.7837V24.1896H141.345ZM138.985 21.8286C137.282 21.8286 135.656 22.177 135.656 23.609C135.644 23.7933 135.672 23.978 135.739 24.1504C135.805 24.3229 135.908 24.479 136.04 24.6078C136.173 24.7365 136.332 24.835 136.506 24.8964C136.68 24.9579 136.865 24.9807 137.049 24.9635C137.46 24.9748 137.863 24.8526 138.198 24.6153C138.533 24.378 138.782 24.0386 138.907 23.6477C138.944 23.482 138.944 23.3103 138.907 23.1446L138.985 21.8286Z" fill="white"/>
<path d="M144.713 12.6171H147.112V18.2679C147.45 17.7753 147.909 17.3778 148.444 17.1135C148.979 16.8491 149.574 16.7269 150.17 16.7584C152.492 16.7584 154.04 18.6936 154.04 21.5964C154.116 22.2178 154.062 22.8482 153.883 23.4481C153.705 24.0481 153.405 24.6047 153.002 25.0838C152.599 25.5629 152.102 25.9541 151.541 26.233C150.981 26.512 150.369 26.6726 149.744 26.7052C149.137 26.7298 148.535 26.5878 148.003 26.2944C147.471 26.0011 147.029 25.5676 146.725 25.041V26.473H144.674C144.674 25.8151 144.674 24.7701 144.674 23.8412V12.6171H144.713ZM147.112 22.5639C147.091 22.7439 147.091 22.9259 147.112 23.1059C147.225 23.5872 147.496 24.0167 147.882 24.3255C148.268 24.6343 148.747 24.8045 149.241 24.8088C150.712 24.8088 151.641 23.609 151.641 21.6738C151.641 19.7387 150.828 18.6164 149.241 18.6164C148.738 18.6315 148.255 18.8153 147.869 19.1382C147.483 19.461 147.216 19.9041 147.112 20.3966C147.089 20.6023 147.089 20.8102 147.112 21.0159V22.5639Z" fill="white"/>
<path d="M156.981 12.6171H159.381V26.473H156.981V12.6171Z" fill="white"/>
<path d="M164.528 22.4094C164.546 22.7681 164.639 23.1192 164.8 23.4403C164.961 23.7614 165.187 24.0456 165.463 24.2749C165.74 24.5041 166.061 24.6735 166.406 24.7721C166.752 24.8707 167.114 24.8964 167.47 24.8477C168.366 24.8709 169.259 24.7266 170.102 24.422L170.45 26.0475C169.406 26.4716 168.287 26.6821 167.16 26.6667C166.509 26.7305 165.851 26.6514 165.234 26.4345C164.617 26.2175 164.054 25.8681 163.586 25.4109C163.118 24.9537 162.755 24.3996 162.523 23.7875C162.292 23.1755 162.197 22.5201 162.245 21.8675C162.186 21.2209 162.262 20.5692 162.468 19.9536C162.675 19.338 163.007 18.7719 163.443 18.2915C163.88 17.8111 164.412 17.4267 165.005 17.1628C165.599 16.8989 166.24 16.7613 166.889 16.7586C167.473 16.7542 168.051 16.8746 168.585 17.1115C169.119 17.3484 169.595 17.6963 169.984 18.1323C170.372 18.5682 170.663 19.0823 170.837 19.6396C171.011 20.197 171.064 20.7849 170.992 21.3643C171.021 21.7121 171.021 22.0616 170.992 22.4094H164.528ZM168.708 20.7064C168.753 20.4206 168.735 20.1287 168.657 19.8503C168.578 19.572 168.441 19.3136 168.253 19.0932C168.066 18.8729 167.833 18.6954 167.571 18.5731C167.309 18.4507 167.024 18.3864 166.734 18.3843C166.142 18.4232 165.586 18.6837 165.178 19.114C164.769 19.5444 164.537 20.1129 164.528 20.7064H168.708Z" fill="white"/>
<path d="M182.836 26.7054C182.191 26.7285 181.548 26.616 180.95 26.3751C180.352 26.1342 179.81 25.7703 179.362 25.3069C178.913 24.8435 178.566 24.291 178.345 23.6852C178.123 23.0794 178.031 22.4338 178.075 21.7902C178.025 21.1299 178.116 20.4663 178.341 19.8437C178.566 19.221 178.921 18.6533 179.382 18.1778C179.843 17.7023 180.399 17.3301 181.014 17.0855C181.63 16.8408 182.29 16.7293 182.952 16.7585C183.594 16.7297 184.236 16.8372 184.834 17.0737C185.433 17.3101 185.974 17.6704 186.424 18.1308C186.873 18.5912 187.22 19.1415 187.442 19.7454C187.664 20.3493 187.756 20.9933 187.712 21.6352C187.756 22.2941 187.661 22.9548 187.433 23.5746C187.206 24.1945 186.851 24.76 186.391 25.2341C185.932 25.7083 185.378 26.0806 184.765 26.3274C184.153 26.5742 183.495 26.6897 182.836 26.6666V26.7054ZM182.836 24.9637C184.19 24.9637 185.158 23.6478 185.158 21.674C185.158 19.7001 184.461 18.5002 182.836 18.5002C181.21 18.5002 180.474 20.1646 180.474 21.7127C180.474 23.2608 181.365 24.9637 182.797 24.9637H182.836Z" fill="white"/>
<path d="M190.537 19.816C190.537 18.7323 190.537 17.8033 190.537 16.9905H192.588V18.4225C192.91 17.904 193.361 17.4781 193.897 17.1863C194.433 16.8946 195.036 16.747 195.646 16.7583C197.31 16.7583 199.013 17.842 199.013 20.8608V26.4729H196.614V21.0931C196.614 19.7384 196.11 18.6935 194.794 18.6935C194.38 18.7108 193.981 18.8532 193.649 19.1019C193.318 19.3506 193.069 19.6942 192.937 20.087C192.896 20.3434 192.896 20.6044 192.937 20.8608V26.4729H190.537V19.816Z" fill="white"/>
<path d="M210.16 14.5523V16.9521H212.443V18.7711H210.16V22.9511C210.16 24.1122 210.47 24.6928 211.398 24.6928C211.706 24.7408 212.02 24.7408 212.328 24.6928V26.5118C211.769 26.7088 211.178 26.8007 210.586 26.7827C210.21 26.7969 209.834 26.7357 209.482 26.6027C209.13 26.4698 208.807 26.2678 208.534 26.0086C207.954 25.2451 207.679 24.2934 207.761 23.3381V18.8873H206.406V17.0681H207.644V15.2877L210.16 14.5523Z" fill="white"/>
<path d="M215.114 12.6171H217.514V18.2679C217.806 17.803 218.221 17.4281 218.714 17.1843C219.222 16.8993 219.795 16.7523 220.378 16.7584C221.965 16.7584 223.668 17.8421 223.668 20.861V26.473H221.268V21.1319C221.268 19.7773 220.765 18.6936 219.449 18.6936C219.03 18.6889 218.62 18.8176 218.279 19.0612C217.939 19.3047 217.684 19.6505 217.553 20.0484C217.512 20.2918 217.512 20.5403 217.553 20.7837V26.473H215.153V12.6171H215.114Z" fill="white"/>
<path d="M228.815 22.4093C228.834 22.768 228.926 23.119 229.087 23.4402C229.248 23.7613 229.474 24.0455 229.75 24.2748C230.027 24.504 230.348 24.6734 230.694 24.772C231.039 24.8706 231.401 24.8963 231.757 24.8476C232.653 24.8638 233.544 24.7197 234.389 24.4219L234.737 26.0474C233.678 26.4677 232.548 26.6779 231.409 26.6666C230.761 26.7244 230.107 26.6407 229.495 26.4211C228.882 26.2015 228.325 25.8512 227.861 25.3947C227.397 24.9382 227.038 24.3863 226.808 23.7773C226.579 23.1682 226.485 22.5165 226.532 21.8674C226.473 21.2208 226.549 20.5691 226.755 19.9535C226.962 19.3378 227.294 18.7718 227.73 18.2914C228.167 17.8109 228.699 17.4266 229.292 17.1627C229.886 16.8988 230.527 16.7612 231.177 16.7585C231.759 16.7603 232.334 16.8848 232.864 17.1237C233.395 17.3626 233.869 17.7108 234.256 18.1454C234.643 18.5799 234.934 19.0912 235.111 19.6459C235.287 20.2005 235.344 20.7859 235.279 21.3642C235.308 21.712 235.308 22.0615 235.279 22.4093H228.815ZM232.996 20.7063C233.034 20.4215 233.012 20.1318 232.931 19.8561C232.85 19.5805 232.712 19.325 232.525 19.1061C232.339 18.8872 232.109 18.7096 231.85 18.5852C231.591 18.4609 231.309 18.3925 231.022 18.3842C230.426 18.414 229.865 18.6717 229.454 19.104C229.044 19.5363 228.815 20.11 228.815 20.7063H232.996Z" fill="white"/>
<path d="M60.997 39.2067C61.0184 37.2357 61.5413 35.3023 62.5164 33.5892C63.4914 31.8761 64.8865 30.4395 66.5703 29.4146C65.5033 27.8859 64.0937 26.6278 62.454 25.7408C60.8143 24.8538 58.99 24.3623 57.1266 24.3057C53.2563 23.88 49.386 26.6666 47.296 26.6666C45.206 26.6666 42.1097 24.3445 38.7425 24.3832C36.5733 24.4574 34.4603 25.0915 32.6088 26.2241C30.7573 27.3567 29.2304 28.9492 28.1765 30.8466C23.6095 38.5873 27.0155 50.392 31.389 56.8167C33.5951 59.9517 36.1494 63.435 39.5166 63.3189C42.8838 63.2028 44.0062 61.229 47.9539 61.229C51.9017 61.229 53.0241 63.3188 56.4687 63.2414C59.9133 63.164 62.1968 60.0677 64.2094 56.9327C65.7897 54.7008 67.0046 52.2318 67.8088 49.6179C65.7762 48.7436 64.0462 47.2897 62.8348 45.4381C61.6234 43.5866 60.9841 41.4193 60.997 39.2067Z" fill="white"/>
<path d="M54.5332 20.0871C56.44 17.781 57.3828 14.8277 57.165 11.8433C54.1825 12.0876 51.4094 13.4742 49.4243 15.7136C48.4721 16.7922 47.7425 18.0484 47.2775 19.4101C46.8126 20.7718 46.6214 22.212 46.7151 23.6478C48.2044 23.6963 49.685 23.4003 51.0411 22.7827C52.3972 22.1651 53.5923 21.2426 54.5332 20.0871Z" fill="white"/>
<path d="M108.409 62.8157H103.842L101.326 55.075H92.618L90.2569 62.8157H85.8062L94.4369 36.033H99.7393L108.409 62.8157ZM100.668 51.6303L98.3848 44.625C98.1526 43.9284 97.7267 42.2254 97.03 39.5936C96.7591 40.716 96.3335 42.4189 95.753 44.625L93.5081 51.6303H100.668Z" fill="white"/>
<path d="M130.586 52.9075C130.734 55.7366 129.776 58.5123 127.915 60.6482C127.17 61.4747 126.255 62.1308 125.233 62.5716C124.211 63.0124 123.106 63.2275 121.993 63.2025C120.914 63.2868 119.832 63.0756 118.864 62.5914C117.896 62.1073 117.078 61.3687 116.497 60.4548V70.6338H112.201V49.8113C112.201 47.76 112.201 45.6313 112.201 43.4639H116.072L116.304 46.5214C116.967 45.5477 117.844 44.7383 118.868 44.1548C119.891 43.5714 121.035 43.2293 122.211 43.1546C123.386 43.08 124.564 43.2749 125.653 43.7242C126.742 44.1735 127.714 44.8655 128.495 45.7475C130.039 47.8008 130.783 50.3461 130.586 52.9075ZM126.212 52.9075C126.273 51.265 125.827 49.6435 124.935 48.2631C124.508 47.6397 123.928 47.1374 123.25 46.8051C122.571 46.4727 121.818 46.3216 121.064 46.3666C120.016 46.3669 119.002 46.7371 118.2 47.4117C117.332 48.1032 116.73 49.0741 116.497 50.1595C116.39 50.5907 116.325 51.0316 116.304 51.4755V54.688C116.262 55.994 116.719 57.2668 117.581 58.2486C118.051 58.7451 118.624 59.1327 119.259 59.3842C119.895 59.6357 120.578 59.7448 121.26 59.7043C121.943 59.6637 122.608 59.4744 123.209 59.1494C123.811 58.8243 124.334 58.3716 124.741 57.8229C125.773 56.4479 126.342 54.7811 126.367 53.0623L126.212 52.9075Z" fill="white"/>
<path d="M152.801 52.9075C152.949 55.7365 151.992 58.5123 150.131 60.6482C149.385 61.4747 148.471 62.1307 147.449 62.5716C146.427 63.0124 145.322 63.2275 144.209 63.2025C143.13 63.2868 142.048 63.0755 141.08 62.5914C140.111 62.1073 139.293 61.3687 138.713 60.4547V70.6338H134.456V49.8113C134.456 47.76 134.456 45.6312 134.262 43.4639H138.133L138.365 46.5213C139.027 45.4024 139.984 44.4863 141.13 43.8723C142.276 43.2582 143.569 42.9698 144.867 43.0382C145.964 43.0314 147.048 43.2713 148.04 43.7402C149.031 44.2092 149.905 44.8953 150.595 45.7475C152.165 47.7928 152.948 50.3336 152.801 52.9075ZM148.428 52.9075C148.489 51.265 148.043 49.6435 147.151 48.263C146.724 47.6396 146.144 47.1374 145.465 46.805C144.787 46.4727 144.034 46.3216 143.28 46.3666C142.232 46.3669 141.218 46.737 140.416 47.4117C139.548 48.1032 138.946 49.0741 138.713 50.1595C138.605 50.5907 138.541 51.0315 138.52 51.4755V54.688C138.478 55.9939 138.935 57.2668 139.797 58.2486C140.263 58.7444 140.833 59.1317 141.465 59.383C142.098 59.6343 142.778 59.7434 143.457 59.7028C144.137 59.6622 144.799 59.4728 145.397 59.1479C145.995 58.8231 146.514 58.3707 146.918 57.8229C147.934 56.4464 148.464 54.7723 148.428 53.0622V52.9075Z" fill="white"/>
<path d="M177.611 55.3071C177.653 56.3471 177.463 57.3834 177.055 58.3407C176.646 59.2981 176.03 60.1525 175.25 60.8417C173.196 62.5225 170.583 63.3657 167.935 63.2025C165.514 63.3227 163.109 62.7451 161.007 61.5383L162.013 57.9777C163.881 59.1049 166.024 59.6942 168.206 59.6806C169.584 59.7987 170.959 59.4137 172.076 58.5968C172.521 58.2506 172.876 57.803 173.111 57.2912C173.347 56.7794 173.456 56.2185 173.43 55.6556C173.447 54.6323 173.057 53.6442 172.347 52.9075C171.222 51.9489 169.901 51.2486 168.477 50.8561C163.793 49.1145 161.433 46.5213 161.433 43.1154C161.417 42.0905 161.631 41.0752 162.06 40.1442C162.488 39.2131 163.121 38.3901 163.91 37.7358C165.75 36.2393 168.082 35.4804 170.45 35.6069C172.55 35.5295 174.636 35.9682 176.527 36.8842L175.443 40.3676C173.871 39.5326 172.114 39.1066 170.334 39.1291C169.062 39.0579 167.809 39.4574 166.812 40.2514C166.463 40.5531 166.185 40.9282 165.998 41.3496C165.811 41.7711 165.719 42.2286 165.729 42.6897C165.725 43.1931 165.835 43.6909 166.049 44.1463C166.263 44.6018 166.577 45.0033 166.967 45.3216C168.142 46.2029 169.448 46.8952 170.837 47.373C172.769 48.0473 174.517 49.16 175.946 50.6239C177.071 51.9196 177.665 53.5922 177.611 55.3071Z" fill="white"/>
<path d="M191.814 46.5989H187.093V55.9651C187.093 58.3647 187.905 59.5645 189.608 59.5645C190.239 59.6338 190.875 59.6338 191.505 59.5645V62.8157C190.417 63.1603 189.278 63.3173 188.138 63.2801C187.419 63.3162 186.701 63.1965 186.033 62.9293C185.365 62.6621 184.763 62.2535 184.267 61.7319C183.176 60.2196 182.668 58.3643 182.835 56.507V46.5989H180.01V43.3865H182.835V39.8258L187.015 38.5485V43.3865H191.737V46.5989H191.814Z" fill="white"/>
<path d="M213.14 52.9851C213.245 55.6521 212.347 58.2615 210.624 60.2999C209.731 61.2785 208.633 62.0493 207.41 62.5575C206.186 63.0658 204.865 63.2991 203.542 63.2414C202.274 63.2998 201.009 63.0767 199.838 62.5882C198.667 62.0997 197.619 61.358 196.768 60.4161C195.044 58.4548 194.143 55.9038 194.253 53.2946C194.138 50.6126 195.068 47.9907 196.846 45.9798C198.693 44.1598 201.181 43.1394 203.774 43.1394C206.367 43.1394 208.855 44.1598 210.702 45.9798C212.367 47.9251 213.237 50.4264 213.14 52.9851ZM208.689 52.9851C208.734 51.3722 208.332 49.7782 207.528 48.3794C207.164 47.6727 206.607 47.0833 205.922 46.6793C205.238 46.2753 204.452 46.073 203.658 46.0958C202.867 46.0948 202.091 46.3061 201.41 46.7079C200.729 47.1096 200.169 47.687 199.787 48.3794C198.986 49.8062 198.598 51.4275 198.665 53.0624C198.607 54.6595 198.996 56.241 199.787 57.6293C200.16 58.3317 200.718 58.9191 201.4 59.3283C202.082 59.7375 202.862 59.9531 203.658 59.9517C204.459 59.9582 205.246 59.7405 205.93 59.3233C206.614 58.9061 207.167 58.3061 207.528 57.5908C208.305 56.2374 208.706 54.7005 208.689 53.1398V52.9851Z" fill="white"/>
<path d="M226.996 47.2956C226.545 47.2539 226.092 47.2539 225.641 47.2956C224.962 47.248 224.283 47.3805 223.671 47.6794C223.059 47.9784 222.538 48.4334 222.158 48.9985C221.4 50.1429 221.02 51.497 221.074 52.8689V63.0092H216.817V49.7727C216.817 47.5666 216.817 45.5539 216.817 43.6962H220.687V47.5665C221.085 46.3625 221.825 45.3003 222.816 44.509C223.722 43.8332 224.821 43.4667 225.951 43.464C226.298 43.4226 226.649 43.4226 226.996 43.464V47.2956Z" fill="white"/>
<path d="M246.347 52.2497C246.415 52.893 246.415 53.5416 246.347 54.1849H233.498C233.466 55.0057 233.616 55.8234 233.937 56.5795C234.258 57.3356 234.743 58.0114 235.356 58.5584C236.557 59.4959 238.052 59.9759 239.574 59.9129C241.347 59.9369 243.107 59.6216 244.761 58.9841L245.457 61.9641C243.397 62.8128 241.183 63.2217 238.955 63.1641C237.663 63.2407 236.368 63.0459 235.155 62.5927C233.942 62.1395 232.837 61.4375 231.911 60.5321C231.034 59.5821 230.355 58.466 229.917 57.2495C229.478 56.0329 229.287 54.7409 229.357 53.4495C229.265 50.8158 230.116 48.2357 231.756 46.1732C232.555 45.1626 233.582 44.3552 234.752 43.8171C235.922 43.279 237.203 43.0254 238.491 43.077C239.719 43.011 240.944 43.2609 242.048 43.8029C243.153 44.345 244.1 45.1611 244.799 46.1732C245.944 47.9843 246.486 50.1115 246.347 52.2497ZM242.245 51.1272C242.312 49.9737 242.029 48.827 241.432 47.8375C241.065 47.264 240.554 46.7974 239.949 46.4848C239.344 46.1722 238.668 46.0246 237.988 46.057C237.321 46.0488 236.663 46.2031 236.069 46.5066C235.476 46.81 234.965 47.2536 234.582 47.7987C233.859 48.7667 233.429 49.922 233.343 51.1272H242.245Z" fill="white"/>
</svg>
