<svg width="271" height="80" viewBox="0 0 271 80" fill="none" xmlns="http://www.w3.org/2000/svg">
<path fill-rule="evenodd" clip-rule="evenodd" d="M261.224 80H10.0723C7.41424 80.0001 4.86398 78.9494 2.97726 77.0772C1.09053 75.2049 0.020368 72.6627 0 70.0048V9.99533C0.00505815 8.67767 0.269547 7.37375 0.778468 6.15834C1.28739 4.94292 2.03065 3.83975 2.96595 2.91162C3.90126 1.98348 5.01034 1.24866 6.22963 0.7491C7.44892 0.249543 8.75462 -0.00500314 10.0723 7.44938e-05H260.916C263.57 5.48603e-05 266.116 1.05193 267.997 2.92528C269.878 4.79863 270.939 7.3409 270.949 9.99533V70.0048C270.931 72.6036 269.909 75.0948 268.096 76.9575C266.284 78.8202 263.822 79.9104 261.224 80Z" fill="#010101"/>
<path fill-rule="evenodd" clip-rule="evenodd" d="M261.224 1.58238C263.453 1.59253 265.587 2.48216 267.162 4.05769C268.738 5.63322 269.627 7.76714 269.637 9.99525V70.0047C269.627 72.2292 268.736 74.3592 267.16 75.9286C265.583 77.498 263.449 78.3789 261.224 78.3789H10.0723C7.84411 78.379 5.70594 77.4992 4.12317 75.9309C2.54041 74.3626 1.64112 72.2327 1.62077 70.0047V9.99525C1.63097 7.76047 2.52589 5.62066 4.10975 4.04403C5.6936 2.46741 7.83747 1.58235 10.0723 1.58238H261.224ZM261.224 4.34696e-09H10.0723C7.41424 -7.80352e-05 4.86398 1.05058 2.97726 2.92285C1.09053 4.79512 0.020368 7.3373 0 9.99525V70.0047C0.020368 72.6626 1.09053 75.2048 2.97726 77.0771C4.86398 78.9493 7.41424 80 10.0723 79.9999H260.916C263.567 79.9898 266.108 78.9346 267.986 77.0634C269.864 75.1922 270.929 72.656 270.949 70.0047V9.99525C270.931 7.39638 269.909 4.90523 268.096 3.0425C266.284 1.17978 263.822 0.0895537 261.224 4.34696e-09Z" fill="#A7A6A6"/>
<path d="M142.981 26.4735C142.132 26.4903 141.29 26.3312 140.506 26.0057C139.722 25.6802 139.014 25.1955 138.427 24.5825C137.261 23.338 136.611 21.696 136.611 19.9901C136.611 18.2843 137.261 16.6423 138.427 15.3978C139.016 14.7899 139.725 14.3112 140.509 13.9923C141.293 13.6734 142.135 13.5213 142.981 13.5455C143.826 13.5282 144.666 13.6837 145.449 14.0022C146.232 14.3207 146.942 14.7955 147.535 15.3978C148.718 16.6317 149.369 18.2808 149.349 19.9901C149.367 20.8378 149.216 21.6809 148.905 22.4695C148.593 23.2581 148.128 23.9764 147.535 24.5825C146.945 25.1918 146.237 25.6739 145.453 25.9991C144.67 26.3243 143.829 26.4857 142.981 26.4735ZM88.9531 26.4735C88.108 26.4907 87.2683 26.3355 86.4853 26.017C85.7023 25.6985 84.9925 25.2234 84.3994 24.6211C83.1856 23.3931 82.5049 21.7361 82.5049 20.0095C82.5049 18.2829 83.1856 16.6258 84.3994 15.3978C84.9925 14.7955 85.7023 14.3207 86.4853 14.0022C87.2683 13.6837 88.108 13.5282 88.9531 13.5455C89.8275 13.536 90.6945 13.7068 91.5 14.0472C92.2475 14.3449 92.9102 14.8219 93.4296 15.4364L92.079 16.7486C91.696 16.2994 91.215 15.944 90.673 15.7099C90.1311 15.4757 89.5427 15.3688 88.9531 15.3978C88.3727 15.385 87.7958 15.4915 87.2581 15.7106C86.7205 15.9296 86.2335 16.2566 85.8272 16.6713C84.9598 17.5583 84.474 18.7495 84.474 19.9901C84.474 21.2307 84.9598 22.4222 85.8272 23.3092C86.2335 23.7239 86.7205 24.0509 87.2581 24.27C87.7958 24.489 88.3727 24.5953 88.9531 24.5825C89.5455 24.599 90.135 24.4948 90.6857 24.2758C91.2365 24.0569 91.7369 23.728 92.1562 23.3092C92.6829 22.7487 93.0086 22.0292 93.0824 21.2637H88.7216V19.3728H94.9733C95.0105 19.6804 95.0105 19.9913 94.9733 20.2989C95.0046 21.0554 94.8842 21.8105 94.6191 22.5196C94.354 23.2288 93.9494 23.8778 93.4296 24.4282C92.8856 25.0445 92.2219 25.5438 91.4788 25.8954C90.7358 26.2471 89.9289 26.4436 89.1074 26.4735H88.9531ZM160.579 26.2035H158.649L152.86 16.8256V26.2035H150.969V13.8156H153.13L158.61 22.6143V13.7384H160.54V26.1263L160.579 26.2035ZM128.471 26.2035H126.541V15.6679H123.184V13.8156H131.828V15.6679H128.471V26.2035ZM121.601 26.2035H119.672V13.8156H121.601V26.2035ZM110.757 26.2035H108.828V15.6679H105.47V13.8156H114.269V15.6679H110.912L110.757 26.2035ZM104.235 26.2035H96.8643V13.8543H104.235V15.7066H98.8325V19.1026H103.772V20.9549H98.8325V24.351H104.274L104.235 26.2035ZM139.701 23.3476C140.537 24.1632 141.659 24.6197 142.827 24.6197C143.995 24.6197 145.116 24.1632 145.953 23.3476C146.378 22.9093 146.711 22.3894 146.93 21.8189C147.148 21.2484 147.249 20.6394 147.226 20.0288C147.253 19.4235 147.154 18.8192 146.935 18.2544C146.715 17.6897 146.381 17.1769 145.953 16.7486C145.551 16.325 145.066 15.9895 144.527 15.7636C143.989 15.5377 143.41 15.4263 142.827 15.4364C142.242 15.4215 141.662 15.5308 141.123 15.757C140.584 15.9832 140.099 16.3212 139.701 16.7486C139.276 17.1797 138.944 17.6929 138.725 18.257C138.506 18.8211 138.405 19.4241 138.427 20.0288C138.404 20.6394 138.505 21.2484 138.723 21.8189C138.942 22.3894 139.275 22.9093 139.701 23.3476Z" fill="white"/>
<path fill-rule="evenodd" clip-rule="evenodd" d="M136.421 43.4926C134.734 43.4926 133.085 43.9927 131.683 44.9298C130.28 45.867 129.187 47.199 128.541 48.7574C127.896 50.3158 127.727 52.0306 128.056 53.685C128.385 55.3394 129.197 56.8592 130.39 58.0519C131.583 59.2447 133.102 60.0568 134.757 60.3859C136.411 60.715 138.126 60.5462 139.685 59.9007C141.243 59.2552 142.575 58.162 143.512 56.7595C144.449 55.357 144.949 53.7081 144.949 52.0213C144.97 50.8956 144.764 49.7771 144.343 48.7329C143.922 47.6887 143.294 46.74 142.498 45.9439C141.702 45.1477 140.753 44.5203 139.709 44.0991C138.665 43.6779 137.546 43.4716 136.421 43.4926ZM136.421 57.1538C135.385 57.2313 134.35 56.9952 133.45 56.4761C132.551 55.9571 131.828 55.1791 131.377 54.2437C130.926 53.3082 130.767 52.2585 130.921 51.2313C131.074 50.2041 131.534 49.2472 132.239 48.4849C132.945 47.7226 133.863 47.1902 134.876 46.9574C135.888 46.7246 136.947 46.8018 137.914 47.1793C138.882 47.5567 139.713 48.2168 140.3 49.0735C140.887 49.9302 141.203 50.9441 141.206 51.9827C141.242 52.639 141.147 53.2959 140.924 53.9144C140.701 54.5329 140.356 55.1003 139.91 55.5827C139.463 56.0652 138.924 56.4528 138.325 56.7228C137.725 56.9927 137.078 57.1393 136.421 57.1538ZM117.82 43.4926C116.133 43.4926 114.484 43.9927 113.082 44.9298C111.679 45.867 110.586 47.199 109.94 48.7574C109.295 50.3158 109.126 52.0306 109.455 53.685C109.784 55.3394 110.596 56.8592 111.789 58.0519C112.982 59.2447 114.501 60.0568 116.156 60.3859C117.81 60.715 119.525 60.5462 121.084 59.9007C122.642 59.2552 123.974 58.162 124.911 56.7595C125.848 55.357 126.348 53.7081 126.348 52.0213C126.364 50.897 126.154 49.7808 125.731 48.739C125.308 47.6973 124.68 46.751 123.885 45.9559C123.09 45.1608 122.144 44.533 121.102 44.1099C120.06 43.6868 118.944 43.477 117.82 43.4926ZM117.82 57.1538C116.784 57.2313 115.749 56.9952 114.849 56.4761C113.95 55.9571 113.227 55.1791 112.776 54.2437C112.325 53.3082 112.166 52.2585 112.32 51.2313C112.473 50.2041 112.933 49.2472 113.638 48.4849C114.344 47.7226 115.262 47.1902 116.275 46.9574C117.287 46.7246 118.346 46.8018 119.313 47.1793C120.281 47.5567 121.112 48.2168 121.7 49.0735C122.287 49.9302 122.602 50.9441 122.605 51.9827C122.636 52.6378 122.536 53.2926 122.312 53.9087C122.087 54.5249 121.742 55.0901 121.297 55.5714C120.851 56.0528 120.314 56.4407 119.717 56.7124C119.12 56.9841 118.475 57.134 117.82 57.1538ZM95.6683 46.1167V49.7057H104.274C104.163 51.3863 103.482 52.9788 102.345 54.2208C101.48 55.1076 100.44 55.8031 99.2896 56.2618C98.1394 56.7205 96.9056 56.9323 95.6683 56.8836C93.1096 56.8836 90.6556 55.8671 88.8463 54.0578C87.037 52.2485 86.0205 49.7946 86.0205 47.2358C86.0205 44.677 87.037 42.2231 88.8463 40.4138C90.6556 38.6045 93.1096 37.588 95.6683 37.588C98.0957 37.5695 100.435 38.497 102.19 40.1738L104.737 37.6266C103.547 36.4543 102.136 35.53 100.586 34.9073C99.0358 34.2846 97.3773 33.9759 95.7069 33.999C92.2066 33.999 88.8494 35.3896 86.3743 37.8647C83.8991 40.3399 82.5088 43.697 82.5088 47.1974C82.5088 50.6978 83.8991 54.0547 86.3743 56.5298C88.8494 59.005 92.2066 60.3956 95.7069 60.3956C97.3409 60.507 98.98 60.2705 100.516 59.7017C102.052 59.1328 103.449 58.2445 104.616 57.0956C105.784 55.9467 106.694 54.5632 107.287 53.0365C107.88 51.5098 108.142 49.8747 108.056 48.2392C108.068 47.4866 107.99 46.7351 107.825 46.0009H95.6683V46.1167ZM186.242 48.8952C185.755 47.3458 184.792 45.9896 183.489 45.0196C182.186 44.0495 180.611 43.5153 178.987 43.4926C177.894 43.4963 176.814 43.7219 175.811 44.1558C174.808 44.5898 173.904 45.2229 173.154 46.0169C172.403 46.8108 171.821 47.7491 171.444 48.7746C171.067 49.8001 170.902 50.8916 170.96 51.9827C170.934 53.1033 171.134 54.2176 171.549 55.2591C171.963 56.3005 172.583 57.2477 173.372 58.0439C174.161 58.8401 175.103 59.469 176.141 59.8929C177.178 60.3169 178.291 60.5271 179.411 60.5112C180.817 60.5058 182.198 60.1501 183.431 59.4762C184.665 58.8024 185.71 57.8317 186.474 56.6521L183.579 54.7225C183.153 55.4463 182.543 56.045 181.811 56.4582C181.079 56.8715 180.252 57.0849 179.411 57.0768C178.545 57.1005 177.691 56.8676 176.956 56.4076C176.222 55.9476 175.639 55.2808 175.282 54.491L186.86 49.783L186.242 48.8952ZM174.665 51.7512C174.628 51.1346 174.715 50.5169 174.919 49.9339C175.122 49.351 175.44 48.8143 175.853 48.3549C176.265 47.8955 176.765 47.5224 177.323 47.2575C177.881 46.9925 178.486 46.8409 179.103 46.8114C179.746 46.7681 180.387 46.913 180.949 47.2283C181.511 47.5435 181.969 48.0155 182.267 48.5866L174.665 51.7512ZM165.403 60.0095H169.262V35.0024H165.403V60.0095ZM159.267 45.3835C158.699 44.7667 158.006 44.2788 157.234 43.9526C156.461 43.6264 155.628 43.4696 154.79 43.4926C152.586 43.5727 150.499 44.5076 148.972 46.0995C147.445 47.6914 146.597 49.8154 146.609 52.0213C146.598 54.2197 147.448 56.3348 148.977 57.9144C150.506 59.4939 152.593 60.4121 154.79 60.4726C155.631 60.4933 156.467 60.3315 157.24 59.9984C158.013 59.6654 158.704 59.1688 159.267 58.543V59.778C159.267 63.0196 157.569 64.7564 154.752 64.7564C153.82 64.735 152.915 64.4375 152.153 63.9016C151.39 63.3658 150.804 62.6156 150.468 61.7462L147.226 63.097C147.852 64.6175 148.926 65.9115 150.304 66.8075C151.683 67.7036 153.301 68.1593 154.945 68.1138C156.088 68.1777 157.232 67.9862 158.293 67.5532C159.353 67.1203 160.304 66.4566 161.076 65.6105C161.848 64.7644 162.422 63.7571 162.757 62.6615C163.091 61.5659 163.178 60.4094 163.01 59.2763V43.8398H159.498V45.2292L159.267 45.3835ZM154.983 57.1538C153.694 57.0421 152.493 56.4511 151.618 55.4972C150.744 54.5434 150.258 53.2962 150.258 52.002C150.258 50.7078 150.744 49.4604 151.618 48.5066C152.493 47.5527 153.694 46.9617 154.983 46.85C156.217 47.0354 157.343 47.6575 158.157 48.6029C158.971 49.5483 159.419 50.7545 159.419 52.002C159.419 53.2495 158.971 54.4555 158.157 55.4009C157.343 56.3463 156.217 56.9683 154.983 57.1538ZM203.763 35.0024H194.809V60.0095H198.669V50.5162H203.878C205.925 50.5162 207.889 49.7029 209.336 48.2555C210.783 46.808 211.596 44.845 211.596 42.7979C211.596 40.7509 210.783 38.7876 209.336 37.3402C207.889 35.8927 205.925 35.0797 203.878 35.0797L203.763 35.0024ZM203.763 47.0429H198.437V38.3985H203.763C204.33 38.3934 204.893 38.5002 205.42 38.7127C205.946 38.9252 206.425 39.2394 206.83 39.6372C207.235 40.035 207.558 40.5084 207.78 41.0309C208.002 41.5534 208.118 42.1144 208.123 42.6821C208.124 43.8188 207.68 44.9109 206.887 45.7255C206.094 46.5401 205.015 47.0127 203.878 47.0429H203.763ZM226.917 43.4539C225.55 43.3808 224.191 43.7067 223.006 44.3919C221.821 45.077 220.86 46.0919 220.241 47.3131L223.56 48.7023C223.927 47.9333 224.538 47.3075 225.298 46.9223C226.058 46.5371 226.924 46.4141 227.761 46.5728C228.598 46.7314 229.36 47.1627 229.926 47.7992C230.492 48.4358 230.832 49.2419 230.892 50.0918V50.3233C229.694 49.7221 228.373 49.405 227.033 49.3969C223.444 49.3969 219.816 51.3265 219.816 54.9927C219.85 55.767 220.04 56.5265 220.373 57.2263C220.706 57.9261 221.176 58.552 221.755 59.0666C222.335 59.5813 223.012 59.9743 223.746 60.2224C224.48 60.4706 225.257 60.5688 226.03 60.5112C226.966 60.563 227.898 60.3654 228.732 59.9381C229.566 59.5109 230.272 58.8695 230.777 58.08V60.0095H234.365V50.4389C234.391 49.4746 234.212 48.5159 233.841 47.6256C233.469 46.7354 232.913 45.9339 232.21 45.274C231.506 44.6141 230.671 44.1108 229.758 43.7971C228.846 43.4834 227.878 43.3664 226.917 43.4539ZM226.454 57.1538C225.219 57.1538 223.521 56.5364 223.521 55.0313C223.521 53.5263 225.644 52.3299 227.38 52.3299C228.567 52.3149 229.737 52.6075 230.777 53.179C230.648 54.2481 230.142 55.2362 229.35 55.965C228.557 56.6939 227.53 57.1154 226.454 57.1538ZM247.641 43.9943L243.357 54.8384L238.919 43.9943H235.06L241.737 59.1606L237.877 67.5735H241.737L252.002 43.9943H247.641ZM214.028 60.0095H217.887V35.0024H214.028V60.0095Z" fill="white"/>
<path fill-rule="evenodd" clip-rule="evenodd" d="M21.0322 15.2436C20.3795 16.0474 20.0491 17.0654 20.1058 18.0993V62.2864C20.0721 62.7964 20.14 63.3081 20.3056 63.7917C20.4712 64.2753 20.7312 64.7212 21.0706 65.1035L45.8464 40.3279V39.7876L21.0322 15.012V15.2436Z" fill="url(#paint0_linear)"/>
<path fill-rule="evenodd" clip-rule="evenodd" d="M54.2205 48.5479L45.9619 40.2893V39.7106L54.2205 31.452L63.984 37.0091C66.8011 38.5528 66.8011 41.1769 63.984 42.7592L54.2205 48.3163V48.5479Z" fill="url(#paint1_linear)"/>
<path fill-rule="evenodd" clip-rule="evenodd" d="M54.4136 48.432L45.9621 39.9805L21.0322 64.9106C21.6161 65.4006 22.3538 65.6693 23.1161 65.6693C23.8783 65.6693 24.6161 65.4006 25.1999 64.9106L54.4136 48.2778" fill="url(#paint2_linear)"/>
<path fill-rule="evenodd" clip-rule="evenodd" d="M54.4136 31.5676L25.1999 14.9734C24.6161 14.4834 23.8783 14.2147 23.1161 14.2147C22.3538 14.2147 21.6161 14.4834 21.0322 14.9734L45.9621 39.8648L54.4136 31.5676Z" fill="url(#paint3_linear)"/>
<path opacity="0.2" fill-rule="evenodd" clip-rule="evenodd" d="M54.2207 48.2778L25.1999 64.7563C24.6416 65.1699 23.9652 65.393 23.2704 65.393C22.5756 65.393 21.8991 65.1699 21.3408 64.7563C21.9015 65.1642 22.577 65.3838 23.2704 65.3838C23.9637 65.3838 24.6392 65.1642 25.1999 64.7563L54.4136 48.1621L54.2207 48.2778Z" fill="#010101"/>
<path opacity="0.12" fill-rule="evenodd" clip-rule="evenodd" d="M64.1002 42.605L54.1436 48.2778L63.9073 42.7206C64.4911 42.4772 64.9973 42.0789 65.3714 41.5688C65.7455 41.0588 65.973 40.4563 66.0297 39.8263C65.9402 40.4056 65.7199 40.9569 65.3855 41.4383C65.0512 41.9198 64.6117 42.3188 64.1002 42.605Z" fill="#010101"/>
<path opacity="0.25" fill-rule="evenodd" clip-rule="evenodd" d="M25.2 15.2435L64.1774 37.3949C64.6953 37.6436 65.1512 38.0047 65.5117 38.452C65.8723 38.8993 66.1283 39.4215 66.2612 39.9804C66.2054 39.3602 65.982 38.7671 65.6149 38.264C65.2478 37.761 64.751 37.3671 64.1774 37.1247L25.2 14.9734C22.3829 13.3525 20.106 14.7033 20.106 17.9063V18.1765C20.106 14.9734 22.3829 13.6613 25.2 15.2435Z" fill="white"/>
<defs>
<linearGradient id="paint0_linear" x1="43.8566" y1="17.2021" x2="3.93278" y2="27.9184" gradientUnits="userSpaceOnUse">
<stop stop-color="#4998D3"/>
<stop offset="0.01" stop-color="#4A99D3"/>
<stop offset="0.26" stop-color="#42BAEB"/>
<stop offset="0.51" stop-color="#41C7F2"/>
<stop offset="0.76" stop-color="#56C9E9"/>
<stop offset="1" stop-color="#5BCAE8"/>
</linearGradient>
<linearGradient id="paint1_linear" x1="111.488" y1="40.0694" x2="63.1118" y2="40.0694" gradientUnits="userSpaceOnUse">
<stop stop-color="#FEE000"/>
<stop offset="0.41" stop-color="#FEBD11"/>
<stop offset="0.78" stop-color="#FAA51A"/>
<stop offset="1" stop-color="#F99C1C"/>
</linearGradient>
<linearGradient id="paint2_linear" x1="49.6568" y1="42.0822" x2="17.983" y2="95.2788" gradientUnits="userSpaceOnUse">
<stop stop-color="#EF4049"/>
<stop offset="1" stop-color="#C31E63"/>
</linearGradient>
<linearGradient id="paint3_linear" x1="14.8785" y1="2.20571" x2="29.0956" y2="25.9352" gradientUnits="userSpaceOnUse">
<stop stop-color="#32A072"/>
<stop offset="0.07" stop-color="#2DA771"/>
<stop offset="0.48" stop-color="#4BBA71"/>
<stop offset="0.8" stop-color="#5EBD6B"/>
<stop offset="1" stop-color="#66BE69"/>
</linearGradient>
</defs>
</svg>
